<?xml version="1.0" encoding="UTF-8"?>
<svg width="400" height="300" viewBox="0 0 400 300" fill="none" xmlns="http://www.w3.org/2000/svg">
  <!-- Background -->
  <rect width="400" height="300" fill="#F8FAFC"/>
  
  <!-- Document Stack -->
  <g transform="translate(100, 50)">
    <!-- Bottom Document -->
    <rect x="0" y="20" width="200" height="160" rx="8" fill="#E2E8F0"/>
    <!-- Middle Document -->
    <rect x="10" y="10" width="200" height="160" rx="8" fill="#CBD5E1"/>
    <!-- Top Document -->
    <rect x="20" y="0" width="200" height="160" rx="8" fill="#FFFFFF"/>
    
    <!-- Document Lines -->
    <rect x="45" y="30" width="150" height="4" rx="2" fill="#94A3B8"/>
    <rect x="45" y="50" width="120" height="4" rx="2" fill="#94A3B8"/>
    <rect x="45" y="70" width="140" height="4" rx="2" fill="#94A3B8"/>
    
    <!-- Chart -->
    <path d="M45 120 L195 120" stroke="#E2E8F0" stroke-width="2"/>
    <path d="M45 100 L45 140" stroke="#E2E8F0" stroke-width="2"/>
    <path d="M45 130 L75 110 L105 125 L135 105 L165 120 L195 100" stroke="#1E40AF" stroke-width="3" fill="none"/>
  </g>
  
  <!-- Decorative Elements -->
  <circle cx="50" cy="50" r="20" fill="#1E40AF" fill-opacity="0.1"/>
  <circle cx="350" cy="250" r="30" fill="#1E40AF" fill-opacity="0.1"/>
</svg> 